<?xml version="1.0" standalone="no"?>
<!DOCTYPE svg PUBLIC "-//W3C//DTD SVG 20010904//EN"
 "http://www.w3.org/TR/2001/REC-SVG-20010904/DTD/svg10.dtd">
<svg version="1.0" xmlns="http://www.w3.org/2000/svg"
 width="400.000000pt" height="300.000000pt" viewBox="0 0 400.000000 300.000000"
 preserveAspectRatio="xMidYMid meet">

<g transform="translate(0.000000,300.000000) scale(0.100000,-0.100000)"
fill="#000000" stroke="none">
<path d="M1941 2083 c-43 -40 -46 -100 -6 -137 29 -27 31 -43 11 -91 l-15 -35
-195 0 -195 0 -36 -35 -35 -36 0 -239 0 -238 25 -30 c13 -16 37 -35 53 -41 20
-8 151 -11 471 -9 l443 3 34 37 34 38 0 240 0 239 -35 36 -36 35 -195 0 -195
0 -15 35 c-20 48 -18 64 11 91 24 22 30 42 26 89 -3 31 -57 75 -91 75 -19 0
-41 -10 -59 -27z m483 -369 c13 -13 16 -46 16 -208 0 -136 -3 -195 -12 -204
-17 -17 -839 -17 -856 0 -9 9 -12 68 -12 204 0 162 3 195 16 208 13 14 66 16
424 16 358 0 411 -2 424 -16z"/>
<path d="M1743 1584 c-75 -38 -96 -154 -28 -154 19 0 29 9 42 37 10 21 26 39
36 41 23 5 47 -15 47 -38 0 -26 26 -43 55 -36 21 5 25 12 25 46 0 86 -99 144
-177 104z"/>
<path d="M2144 1581 c-44 -27 -64 -59 -64 -103 0 -32 4 -39 25 -44 29 -7 55
10 55 36 0 23 24 43 47 38 10 -2 26 -20 36 -41 15 -32 22 -38 45 -35 63 7 44
111 -28 150 -44 23 -77 23 -116 -1z"/>
<path d="M1774 1097 c-3 -8 -3 -56 -2 -108 3 -88 4 -94 25 -97 11 -2 62 17
112 43 l91 45 91 -45 c50 -26 101 -45 112 -43 21 3 22 9 25 106 2 88 0 103
-14 109 -10 3 -56 -13 -115 -43 l-99 -48 -95 47 c-100 50 -122 55 -131 34z"/>
</g>
</svg>
